# xmcd CD database file
#
# Track frame offsets:
#	150
#	13829
#	27600
#	42331
#	56687
#	68911
#	80334
#	94788
#	108797
#	122505
#	136001
#	149878
#	162633
#	175538
#	187757
#	202670
#	213742
#	227161
#	240242
#	254206
#	267116
#	280408
#	294283
#	308690
#	320407
#
# Disc length: 4442 seconds
#
# Revision: 0
# Processed by: cddbd v1.5.2PL0 Copyright (c) Steve Scherf et al.
# Submitted via: CDex 1.70beta2
#
DISCID=68115819
DTITLE=Various Artist - That Devilin' Tune (A Jazz History) Volume 1 [CD5)
DYEAR=2006
DGENRE=Jazz
TTITLE0=Midway Dance Orchestra - Lots O' Mama
TTITLE1=Clarence William's Blues Five - Shreveport Blues
TTITLE2=Jelly Roll Morton - London Blues
TTITLE3=Jesse Crump - Mr Crump's Rag
TTITLE4=Jelly Roll Morton - New Orleans Joys
TTITLE5=Jimmie's Joys - Wolverine Blues
TTITLE6=Mammie Smith - Lady Luck Blues
TTITLE7=Paul Whiteman - If I Can't Have The Sweetie
TTITLE8=Wade's Moulin Rouge Orchestra - Mobile Blues
TTITLE9=New Orleans Rhythm Kings - Tin Roof Blues
TTITLE10=Cliff Edwards - Hard Hearted Hannab
TTITLE11=Fate Marable - Frankie And Johnny
TTITLE12=Arcadia Peacock Orchestra Of St Loius - Where's My Sweetie Hiding
TTITLE13=Art Landry and his Orchestra - Rip Saw Blues
TTITLE14=Vincent Rose and his Orchestra - Helen Gone
TTITLE15=Elmer Kaiser and his Ballroom Orchestra - Monkey Business
TTITLE16=Charlie Creath - Pleasure Mad
TTITLE17=Fletcher Henderson - Copenhagen
TTITLE18=Marion Harris - There'll Be Some Changes Made
TTITLE19=Mound City Blue Blowers - Red Hot
TTITLE20=Wendell Hall - Comfortin' Girl
TTITLE21=Johnny Bayersdorffer - I Wonder Where My Easy Rider's Riding Now
TTITLE22=Original Crescent City Jazz Band - Christine
TTITLE23=Clarence Williams - Everybody Loves My Baby
TTITLE24=Harry Reser - Sweet Like You
EXTD=YEAR: 2006
EXTT0=
EXTT1=
EXTT2=
EXTT3=
EXTT4=
EXTT5=
EXTT6=
EXTT7=
EXTT8=
EXTT9=
EXTT10=
EXTT11=
EXTT12=
EXTT13=
EXTT14=
EXTT15=
EXTT16=
EXTT17=
EXTT18=
EXTT19=
EXTT20=
EXTT21=
EXTT22=
EXTT23=
EXTT24=
PLAYORDER=
